<?xml version="1.0" encoding="UTF-8"?>
<svg xmlns="http://www.w3.org/2000/svg" xmlns:xlink="http://www.w3.org/1999/xlink" width="500pt" height="500pt" viewBox="0 0 500 500" version="1.1">
<g id="surface1">
<path style=" stroke:none;fill-rule:nonzero;fill:#FFFFFF;fill-opacity:1;" d="M 441.828125 283.988281 C 443.328125 280.910156 444.660156 277.671875 445.808594 274.273438 C 458.976563 235.425781 439.066406 188.886719 397.144531 177.648438 C 392.613281 120.730469 352.613281 81.683594 307.441406 75.019531 C 255.734375 67.398438 208.371094 100.246094 192.609375 152.449219 C 173.613281 145.71875 155.105469 146.539063 137.660156 156.734375 C 129.746094 160.394531 122.503906 165.796875 116.011719 172.898438 C 106.476563 183.328125 100.273438 196.496094 97.75 210.375 C 94.011719 210.964844 90.335938 211.554688 86.871094 212.796875 C 66.671875 220.039063 53.925781 234.949219 50.429688 257.410156 C 48.253906 271.394531 52.644531 285.34375 55.09375 290.980469 C 64.769531 313.253906 87.203125 325.878906 110 322.539063 C 111.136719 322.375 112.785156 322.886719 113.761719 323.703125 C 114.964844 359.304688 132.25 390.789063 158.179688 408.773438 C 199.785156 437.636719 253.316406 428.746094 287.085938 389.171875 C 301.554688 403.96875 318.773438 411.160156 339.003906 408.550781 C 359.121094 405.953125 374.738281 394.855469 386.136719 376.804688 C 391.398438 378.21875 396.390625 380.261719 401.550781 380.824219 C 421.761719 383.035156 438.171875 375 450.210938 356.824219 C 454.820313 349.871094 459.175781 340.855469 459.175781 325.054688 C 459.179688 308.773438 452.714844 293.941406 441.828125 283.988281 Z "/>
<path style=" stroke:none;fill-rule:nonzero;fill:#FDFCEF;fill-opacity:1;" d="M 201.105469 349.425781 C 201.105469 349.425781 252.648438 349.425781 252.960938 349.425781 C 264.863281 349.425781 274.511719 339.773438 274.511719 327.871094 C 274.511719 317.484375 267.164063 308.820313 257.386719 306.773438 C 257.5 305.863281 257.574219 304.945313 257.574219 304.003906 C 257.574219 291.675781 247.578125 281.679688 235.253906 281.679688 C 227.976563 281.679688 221.53125 285.179688 217.453125 290.570313 C 216.414063 276.84375 204.15625 266.261719 189.816406 268.015625 C 179.328125 269.300781 170.65625 277.40625 168.726563 287.789063 C 168.105469 291.121094 168.171875 294.355469 168.785156 297.390625 C 165.976563 294.359375 161.96875 292.453125 157.515625 292.453125 C 149.355469 292.453125 142.699219 298.804688 142.171875 306.828125 C 138.464844 306.011719 134.433594 306.066406 130.191406 307.65625 C 122.078125 310.699219 116.300781 318.339844 115.964844 326.996094 C 115.484375 339.289063 125.308594 349.410156 137.5 349.410156 C 138.425781 349.410156 141.679688 349.410156 142.429688 349.410156 L 187.183594 349.410156 "/>
<path style=" stroke:none;fill-rule:nonzero;fill:#472B29;fill-opacity:1;" d="M 252.964844 351.925781 L 201.105469 351.925781 C 199.726563 351.925781 198.605469 350.804688 198.605469 349.425781 C 198.605469 348.046875 199.726563 346.925781 201.105469 346.925781 L 252.964844 346.925781 C 263.46875 346.925781 272.015625 338.378906 272.015625 327.871094 C 272.015625 318.894531 265.648438 311.054688 256.886719 309.226563 C 255.609375 308.960938 254.753906 307.765625 254.914063 306.46875 C 255.015625 305.664063 255.085938 304.84375 255.085938 304.011719 C 255.085938 293.074219 246.195313 284.183594 235.265625 284.183594 C 229.015625 284.183594 223.253906 287.066406 219.460938 292.085938 C 218.835938 292.914063 217.765625 293.269531 216.761719 292.976563 C 215.765625 292.679688 215.050781 291.804688 214.976563 290.769531 C 214.519531 284.78125 211.585938 279.148438 206.925781 275.324219 C 202.214844 271.464844 196.238281 269.765625 190.128906 270.5 C 180.710938 271.65625 172.921875 278.953125 171.195313 288.253906 C 170.65625 291.15625 170.675781 294.066406 171.25 296.898438 C 171.46875 298 170.933594 299.109375 169.941406 299.625 C 168.949219 300.140625 167.734375 299.921875 166.964844 299.101563 C 164.496094 296.433594 161.140625 294.964844 157.523438 294.964844 C 150.761719 294.964844 145.121094 300.253906 144.679688 307.003906 C 144.628906 307.734375 144.269531 308.40625 143.683594 308.84375 C 143.101563 309.28125 142.34375 309.441406 141.644531 309.285156 C 137.996094 308.476563 134.539063 308.714844 131.085938 310.011719 C 123.835938 312.730469 118.769531 319.601563 118.476563 327.109375 C 118.269531 332.351563 120.15625 337.316406 123.78125 341.085938 C 127.410156 344.855469 132.285156 346.929688 137.515625 346.929688 L 187.199219 346.929688 C 188.578125 346.929688 189.699219 348.050781 189.699219 349.429688 C 189.699219 350.808594 188.578125 351.929688 187.199219 351.929688 L 137.515625 351.929688 C 130.914063 351.929688 124.753906 349.308594 120.179688 344.546875 C 115.605469 339.789063 113.226563 333.523438 113.484375 326.914063 C 113.855469 317.421875 120.226563 308.746094 129.328125 305.335938 C 132.820313 304.019531 136.414063 303.566406 140.078125 303.96875 C 141.871094 295.933594 149.070313 289.96875 157.53125 289.96875 C 160.433594 289.96875 163.273438 290.691406 165.808594 292.015625 C 165.835938 290.460938 165.996094 288.90625 166.28125 287.34375 C 168.398438 275.925781 177.960938 266.960938 189.523438 265.546875 C 197.015625 264.625 204.320313 266.730469 210.09375 271.464844 C 214.445313 275.035156 217.570313 279.886719 219.054688 285.234375 C 223.519531 281.355469 229.210938 279.195313 235.265625 279.195313 C 248.949219 279.195313 260.085938 290.335938 260.085938 304.019531 C 260.085938 304.316406 260.078125 304.605469 260.066406 304.898438 C 270.011719 307.96875 277.019531 317.304688 277.019531 327.886719 C 277.015625 341.136719 266.226563 351.925781 252.964844 351.925781 Z "/>
<path style=" stroke:none;fill-rule:nonzero;fill:#FDFCEF;fill-opacity:1;" d="M 261.691406 309.304688 C 254.199219 305.773438 245.535156 308.273438 242.339844 314.890625 C 241.945313 315.710938 241.648438 316.558594 241.453125 317.421875 "/>
<path style=" stroke:none;fill-rule:nonzero;fill:#472B29;fill-opacity:1;" d="M 241.449219 318.671875 C 241.355469 318.671875 241.265625 318.660156 241.171875 318.636719 C 240.5 318.484375 240.078125 317.808594 240.230469 317.140625 C 240.449219 316.171875 240.78125 315.230469 241.210938 314.34375 C 244.699219 307.125 254.125 304.355469 262.21875 308.171875 C 262.84375 308.46875 263.113281 309.210938 262.820313 309.835938 C 262.523438 310.460938 261.78125 310.714844 261.15625 310.433594 C 254.296875 307.199219 246.355469 309.441406 243.460938 315.429688 C 243.113281 316.148438 242.84375 316.910156 242.664063 317.695313 C 242.535156 318.28125 242.023438 318.671875 241.449219 318.671875 Z "/>
<path style=" stroke:none;fill-rule:nonzero;fill:#FFFFFF;fill-opacity:1;" d="M 90.15625 244.171875 L 40 244.171875 C 38.621094 244.171875 37.5 243.050781 37.5 241.671875 C 37.5 240.289063 38.621094 239.171875 40 239.171875 L 90.15625 239.171875 C 91.535156 239.171875 92.65625 240.289063 92.65625 241.671875 C 92.65625 243.050781 91.535156 244.171875 90.15625 244.171875 Z "/>
<path style=" stroke:none;fill-rule:nonzero;fill:#FFFFFF;fill-opacity:1;" d="M 104.558594 244.171875 L 97.328125 244.171875 C 95.949219 244.171875 94.828125 243.050781 94.828125 241.671875 C 94.828125 240.289063 95.949219 239.171875 97.328125 239.171875 L 104.558594 239.171875 C 105.941406 239.171875 107.058594 240.289063 107.058594 241.671875 C 107.058594 243.050781 105.941406 244.171875 104.558594 244.171875 Z "/>
<path style=" stroke:none;fill-rule:nonzero;fill:#FFFFFF;fill-opacity:1;" d="M 124.835938 244.171875 L 112.105469 244.171875 C 110.726563 244.171875 109.605469 243.050781 109.605469 241.671875 C 109.605469 240.289063 110.726563 239.171875 112.105469 239.171875 L 124.835938 239.171875 C 126.214844 239.171875 127.335938 240.289063 127.335938 241.671875 C 127.335938 243.050781 126.214844 244.171875 124.835938 244.171875 Z "/>
<path style=" stroke:none;fill-rule:nonzero;fill:#FFFFFF;fill-opacity:1;" d="M 124.835938 253.496094 L 76.75 253.496094 C 75.371094 253.496094 74.25 252.375 74.25 250.996094 C 74.25 249.613281 75.371094 248.496094 76.75 248.496094 L 124.828125 248.496094 C 126.210938 248.496094 127.328125 249.613281 127.328125 250.996094 C 127.328125 252.375 126.214844 253.496094 124.835938 253.496094 Z "/>
<path style=" stroke:none;fill-rule:nonzero;fill:#FFFFFF;fill-opacity:1;" d="M 68.09375 253.496094 L 65.195313 253.496094 C 63.816406 253.496094 62.695313 252.375 62.695313 250.996094 C 62.695313 249.613281 63.816406 248.496094 65.195313 248.496094 L 68.09375 248.496094 C 69.476563 248.496094 70.59375 249.613281 70.59375 250.996094 C 70.59375 252.375 69.476563 253.496094 68.09375 253.496094 Z "/>
<path style=" stroke:none;fill-rule:nonzero;fill:#FFFFFF;fill-opacity:1;" d="M 56.210938 253.496094 L 48.929688 253.496094 C 47.550781 253.496094 46.429688 252.375 46.429688 250.996094 C 46.429688 249.613281 47.550781 248.496094 48.929688 248.496094 L 56.210938 248.496094 C 57.589844 248.496094 58.710938 249.613281 58.710938 250.996094 C 58.710938 252.375 57.589844 253.496094 56.210938 253.496094 Z "/>
<path style=" stroke:none;fill-rule:nonzero;fill:#FFFFFF;fill-opacity:1;" d="M 101.890625 234.84375 L 76.75 234.84375 C 75.371094 234.84375 74.25 233.726563 74.25 232.34375 C 74.25 230.964844 75.371094 229.84375 76.75 229.84375 L 101.886719 229.84375 C 103.265625 229.84375 104.386719 230.964844 104.386719 232.34375 C 104.386719 233.726563 103.269531 234.84375 101.890625 234.84375 Z "/>
<path style=" stroke:none;fill-rule:nonzero;fill:#FFFFFF;fill-opacity:1;" d="M 101.890625 225.519531 L 95.601563 225.519531 C 94.21875 225.519531 93.101563 224.398438 93.101563 223.019531 C 93.101563 221.640625 94.21875 220.519531 95.601563 220.519531 L 101.886719 220.519531 C 103.265625 220.519531 104.386719 221.640625 104.386719 223.019531 C 104.386719 224.398438 103.269531 225.519531 101.890625 225.519531 Z "/>
<path style=" stroke:none;fill-rule:nonzero;fill:#FFFFFF;fill-opacity:1;" d="M 85.546875 262.820313 L 76.75 262.820313 C 75.371094 262.820313 74.25 261.699219 74.25 260.320313 C 74.25 258.941406 75.371094 257.820313 76.75 257.820313 L 85.546875 257.820313 C 86.925781 257.820313 88.046875 258.941406 88.046875 260.320313 C 88.046875 261.699219 86.929688 262.820313 85.546875 262.820313 Z "/>
<path style=" stroke:none;fill-rule:nonzero;fill:#FFFFFF;fill-opacity:1;" d="M 356.046875 112.785156 L 305.894531 112.785156 C 304.515625 112.785156 303.394531 111.664063 303.394531 110.285156 C 303.394531 108.90625 304.515625 107.785156 305.894531 107.785156 L 356.046875 107.785156 C 357.425781 107.785156 358.546875 108.90625 358.546875 110.285156 C 358.546875 111.664063 357.425781 112.785156 356.046875 112.785156 Z "/>
<path style=" stroke:none;fill-rule:nonzero;fill:#FFFFFF;fill-opacity:1;" d="M 370.449219 112.785156 L 363.21875 112.785156 C 361.839844 112.785156 360.71875 111.664063 360.71875 110.285156 C 360.71875 108.90625 361.839844 107.785156 363.21875 107.785156 L 370.449219 107.785156 C 371.828125 107.785156 372.949219 108.90625 372.949219 110.285156 C 372.949219 111.664063 371.835938 112.785156 370.449219 112.785156 Z "/>
<path style=" stroke:none;fill-rule:nonzero;fill:#FFFFFF;fill-opacity:1;" d="M 390.71875 112.785156 L 377.988281 112.785156 C 376.609375 112.785156 375.488281 111.664063 375.488281 110.285156 C 375.488281 108.90625 376.609375 107.785156 377.988281 107.785156 L 390.71875 107.785156 C 392.101563 107.785156 393.21875 108.90625 393.21875 110.285156 C 393.21875 111.664063 392.105469 112.785156 390.71875 112.785156 Z "/>
<path style=" stroke:none;fill-rule:nonzero;fill:#FFFFFF;fill-opacity:1;" d="M 380.59375 94.140625 L 332.511719 94.140625 C 331.128906 94.140625 330.011719 93.019531 330.011719 91.640625 C 330.011719 90.261719 331.128906 89.140625 332.511719 89.140625 L 380.59375 89.140625 C 381.976563 89.140625 383.09375 90.261719 383.09375 91.640625 C 383.09375 93.019531 381.976563 94.140625 380.59375 94.140625 Z "/>
<path style=" stroke:none;fill-rule:nonzero;fill:#FFFFFF;fill-opacity:1;" d="M 323.855469 94.140625 L 320.953125 94.140625 C 319.574219 94.140625 318.453125 93.019531 318.453125 91.640625 C 318.453125 90.261719 319.574219 89.140625 320.953125 89.140625 L 323.855469 89.140625 C 325.234375 89.140625 326.355469 90.261719 326.355469 91.640625 C 326.355469 93.019531 325.234375 94.140625 323.855469 94.140625 Z "/>
<path style=" stroke:none;fill-rule:nonzero;fill:#FFFFFF;fill-opacity:1;" d="M 311.96875 94.140625 L 304.691406 94.140625 C 303.308594 94.140625 302.191406 93.019531 302.191406 91.640625 C 302.191406 90.261719 303.308594 89.140625 304.691406 89.140625 L 311.96875 89.140625 C 313.351563 89.140625 314.46875 90.261719 314.46875 91.640625 C 314.46875 93.019531 313.351563 94.140625 311.96875 94.140625 Z "/>
<path style=" stroke:none;fill-rule:nonzero;fill:#FFFFFF;fill-opacity:1;" d="M 367.78125 103.460938 L 342.644531 103.460938 C 341.265625 103.460938 340.144531 102.339844 340.144531 100.960938 C 340.144531 99.578125 341.265625 98.460938 342.644531 98.460938 L 367.78125 98.460938 C 369.160156 98.460938 370.28125 99.578125 370.28125 100.960938 C 370.28125 102.339844 369.160156 103.460938 367.78125 103.460938 Z "/>
<path style=" stroke:none;fill-rule:nonzero;fill:#FFFFFF;fill-opacity:1;" d="M 367.78125 94.140625 L 361.496094 94.140625 C 360.113281 94.140625 358.996094 93.019531 358.996094 91.640625 C 358.996094 90.261719 360.113281 89.140625 361.496094 89.140625 L 367.78125 89.140625 C 369.160156 89.140625 370.28125 90.261719 370.28125 91.640625 C 370.28125 93.019531 369.160156 94.140625 367.78125 94.140625 Z "/>
<path style=" stroke:none;fill-rule:nonzero;fill:#FFFFFF;fill-opacity:1;" d="M 335.363281 103.460938 L 326.570313 103.460938 C 325.191406 103.460938 324.070313 102.339844 324.070313 100.960938 C 324.070313 99.578125 325.191406 98.460938 326.570313 98.460938 L 335.363281 98.460938 C 336.746094 98.460938 337.863281 99.578125 337.863281 100.960938 C 337.863281 102.339844 336.746094 103.460938 335.363281 103.460938 Z "/>
<path style=" stroke:none;fill-rule:nonzero;fill:#FDFCEF;fill-opacity:1;" d="M 334.238281 267.09375 C 343.65625 267.09375 351.824219 267.09375 351.941406 267.09375 C 362.488281 267.09375 371.046875 258.726563 371.046875 248.398438 C 371.046875 239.390625 364.535156 231.875 355.871094 230.101563 C 355.96875 229.308594 356.039063 228.515625 356.039063 227.699219 C 356.039063 217.003906 347.179688 208.335938 336.253906 208.335938 C 329.804688 208.335938 324.089844 211.371094 320.480469 216.050781 C 319.554688 204.144531 308.691406 194.960938 295.980469 196.484375 C 286.683594 197.601563 278.996094 204.628906 277.285156 213.640625 C 276.734375 216.53125 276.796875 219.335938 277.339844 221.964844 C 274.851563 219.339844 271.300781 217.683594 267.351563 217.683594 C 260.121094 217.683594 254.214844 223.195313 253.75 230.15625 C 250.464844 229.445313 246.894531 229.488281 243.136719 230.871094 C 235.945313 233.511719 230.824219 240.136719 230.523438 247.648438 C 230.101563 258.316406 238.808594 267.09375 249.613281 267.09375 C 250.433594 267.09375 253.320313 267.09375 253.984375 267.09375 L 293.65625 267.09375 M 301.851563 267.09375 L 303.648438 267.09375 "/>
<path style=" stroke:none;fill-rule:nonzero;fill:#472B29;fill-opacity:1;" d="M 351.941406 269.59375 L 334.234375 269.59375 C 332.855469 269.59375 331.734375 268.476563 331.734375 267.09375 C 331.734375 265.714844 332.855469 264.59375 334.234375 264.59375 L 351.941406 264.59375 C 361.09375 264.59375 368.539063 257.328125 368.539063 248.398438 C 368.539063 240.78125 363 234.113281 355.363281 232.554688 C 354.085938 232.289063 353.21875 231.085938 353.386719 229.789063 C 353.476563 229.101563 353.535156 228.410156 353.535156 227.699219 C 353.535156 218.398438 345.78125 210.835938 336.25 210.835938 C 330.789063 210.835938 325.761719 213.289063 322.449219 217.574219 C 321.820313 218.394531 320.75 218.726563 319.753906 218.445313 C 318.765625 218.144531 318.058594 217.273438 317.980469 216.246094 C 317.585938 211.144531 315.15625 206.523438 311.136719 203.226563 C 306.996094 199.824219 301.714844 198.324219 296.269531 198.960938 C 288.039063 199.945313 281.238281 206.171875 279.734375 214.105469 C 279.265625 216.574219 279.285156 219.046875 279.785156 221.453125 C 280.011719 222.550781 279.484375 223.660156 278.496094 224.179688 C 277.511719 224.691406 276.296875 224.496094 275.519531 223.679688 C 273.375 221.425781 270.476563 220.179688 267.34375 220.179688 C 261.5 220.179688 256.621094 224.636719 256.238281 230.320313 C 256.191406 231.050781 255.828125 231.714844 255.25 232.148438 C 254.671875 232.585938 253.929688 232.753906 253.214844 232.59375 C 250.019531 231.914063 247.011719 232.109375 243.996094 233.214844 C 237.683594 235.53125 233.273438 241.371094 233.019531 247.746094 C 232.84375 252.121094 234.433594 256.28125 237.496094 259.46875 C 240.671875 262.769531 244.976563 264.589844 249.609375 264.589844 L 293.648438 264.589844 C 295.03125 264.589844 296.148438 265.710938 296.148438 267.089844 C 296.148438 268.46875 295.03125 269.589844 293.648438 269.589844 L 249.609375 269.589844 C 243.683594 269.589844 237.953125 267.164063 233.886719 262.929688 C 229.875 258.753906 227.796875 253.289063 228.023438 247.550781 C 228.359375 239.171875 234.085938 231.523438 242.269531 228.519531 C 245.320313 227.394531 248.476563 226.984375 251.671875 227.300781 C 253.390625 220.320313 259.816406 215.175781 267.351563 215.175781 C 269.816406 215.175781 272.230469 215.738281 274.421875 216.789063 C 274.464844 215.585938 274.601563 214.375 274.828125 213.164063 C 276.734375 203.113281 285.316406 195.230469 295.679688 193.988281 C 302.5 193.160156 309.105469 195.074219 314.316406 199.34375 C 318.054688 202.410156 320.703125 206.394531 322.046875 210.859375 C 326 207.621094 330.976563 205.824219 336.253906 205.824219 C 348.546875 205.824219 358.539063 215.636719 358.539063 227.691406 C 358.539063 227.859375 358.539063 228.03125 358.535156 228.203125 C 367.355469 230.980469 373.550781 239.144531 373.550781 248.390625 C 373.539063 260.089844 363.851563 269.59375 351.941406 269.59375 Z M 303.648438 269.59375 L 301.851563 269.59375 C 300.46875 269.59375 299.351563 268.476563 299.351563 267.09375 C 299.351563 265.714844 300.46875 264.59375 301.851563 264.59375 L 303.644531 264.59375 C 305.023438 264.59375 306.144531 265.714844 306.144531 267.09375 C 306.144531 268.476563 305.03125 269.59375 303.648438 269.59375 Z "/>
<path style=" stroke:none;fill-rule:nonzero;fill:#472B29;fill-opacity:1;" d="M 343.40625 240.585938 C 343.316406 240.585938 343.226563 240.574219 343.136719 240.554688 C 342.460938 240.40625 342.035156 239.734375 342.183594 239.058594 C 342.371094 238.234375 342.65625 237.425781 343.03125 236.664063 C 346.050781 230.546875 354.390625 228.285156 361.640625 231.636719 C 362.265625 231.925781 362.539063 232.664063 362.25 233.289063 C 361.960938 233.921875 361.214844 234.191406 360.589844 233.898438 C 354.566406 231.113281 347.695313 232.859375 345.273438 237.765625 C 344.984375 238.351563 344.769531 238.96875 344.628906 239.605469 C 344.496094 240.183594 343.976563 240.585938 343.40625 240.585938 Z "/>
<path style=" stroke:none;fill-rule:nonzero;fill:#472B29;fill-opacity:1;" d="M 317.605469 269.59375 L 312.070313 269.59375 C 310.691406 269.59375 309.570313 268.476563 309.570313 267.09375 C 309.570313 265.714844 310.691406 264.59375 312.070313 264.59375 L 317.605469 264.59375 C 318.984375 264.59375 320.105469 265.714844 320.105469 267.09375 C 320.105469 268.476563 318.988281 269.59375 317.605469 269.59375 Z "/>
<path style=" stroke:none;fill-rule:nonzero;fill:#CBC9BC;fill-opacity:1;" d="M 322.5 183.390625 L 322.5 168.730469 C 322.5 166.671875 324.191406 164.980469 326.25 164.980469 L 328.246094 164.980469 C 330.304688 164.980469 331.996094 166.671875 331.996094 168.730469 L 331.996094 183.390625 C 331.996094 185.449219 330.304688 187.140625 328.246094 187.140625 L 326.25 187.140625 C 324.191406 187.140625 322.5 185.453125 322.5 183.390625 Z "/>
<path style=" stroke:none;fill-rule:nonzero;fill:#472B29;fill-opacity:1;" d="M 328.25 189.015625 L 326.25 189.015625 C 323.148438 189.015625 320.625 186.488281 320.625 183.390625 L 320.625 168.730469 C 320.625 165.628906 323.148438 163.105469 326.25 163.105469 L 328.246094 163.105469 C 331.34375 163.105469 333.871094 165.628906 333.871094 168.730469 L 333.871094 183.390625 C 333.875 186.488281 331.351563 189.015625 328.25 189.015625 Z M 326.25 166.855469 C 325.214844 166.855469 324.375 167.695313 324.375 168.730469 L 324.375 183.390625 C 324.375 184.425781 325.214844 185.265625 326.25 185.265625 L 328.246094 185.265625 C 329.28125 185.265625 330.121094 184.425781 330.121094 183.390625 L 330.121094 168.730469 C 330.121094 167.695313 329.28125 166.855469 328.246094 166.855469 Z "/>
<path style=" stroke:none;fill-rule:nonzero;fill:#E1E0D8;fill-opacity:1;" d="M 299.085938 365.988281 L 225.628906 365.988281 C 211.878906 365.988281 200.628906 354.738281 200.628906 340.988281 L 200.628906 166.238281 C 200.628906 152.488281 211.878906 141.238281 225.628906 141.238281 L 299.085938 141.238281 C 312.835938 141.238281 324.085938 152.488281 324.085938 166.238281 L 324.085938 340.988281 C 324.085938 354.738281 312.835938 365.988281 299.085938 365.988281 Z "/>
<path style=" stroke:none;fill-rule:nonzero;fill:#472B29;fill-opacity:1;" d="M 299.085938 369.496094 L 225.636719 369.496094 C 209.921875 369.496094 197.136719 356.703125 197.136719 340.996094 L 197.136719 166.246094 C 197.136719 150.53125 209.921875 137.746094 225.636719 137.746094 L 299.085938 137.746094 C 314.800781 137.746094 327.585938 150.535156 327.585938 166.246094 L 327.585938 340.996094 C 327.585938 356.703125 314.800781 369.496094 299.085938 369.496094 Z M 225.628906 144.746094 C 213.773438 144.746094 204.128906 154.390625 204.128906 166.246094 L 204.128906 340.996094 C 204.128906 352.851563 213.773438 362.496094 225.628906 362.496094 L 299.078125 362.496094 C 310.933594 362.496094 320.578125 352.851563 320.578125 340.996094 L 320.578125 166.246094 C 320.578125 154.390625 310.933594 144.746094 299.078125 144.746094 Z "/>
<path style=" stroke:none;fill-rule:nonzero;fill:#C5DEF0;fill-opacity:1;" d="M 311.425781 198.21875 L 311.425781 328.003906 L 216.460938 328.003906 L 216.460938 169.730469 L 311.425781 169.730469 Z "/>
<path style=" stroke:none;fill-rule:nonzero;fill:#472B29;fill-opacity:1;" d="M 214.875 268.15625 C 213.839844 268.15625 213 267.316406 213 266.28125 L 213 168.148438 C 213 167.113281 213.839844 166.273438 214.875 166.273438 L 297.175781 166.273438 C 298.210938 166.273438 299.050781 167.113281 299.050781 168.148438 C 299.050781 169.183594 298.210938 170.023438 297.175781 170.023438 L 216.75 170.023438 L 216.75 266.28125 C 216.75 267.316406 215.910156 268.15625 214.875 268.15625 Z "/>
<path style=" stroke:none;fill-rule:nonzero;fill:#472B29;fill-opacity:1;" d="M 309.839844 328.300781 L 214.875 328.300781 C 213.839844 328.300781 213 327.460938 213 326.425781 L 213 297.933594 C 213 296.898438 213.839844 296.058594 214.875 296.058594 C 215.910156 296.058594 216.75 296.898438 216.75 297.933594 L 216.75 324.550781 L 307.964844 324.550781 L 307.964844 196.640625 C 307.964844 195.605469 308.804688 194.765625 309.839844 194.765625 C 310.875 194.765625 311.714844 195.605469 311.714844 196.640625 L 311.714844 326.425781 C 311.714844 327.460938 310.875 328.300781 309.839844 328.300781 Z "/>
<path style=" stroke:none;fill-rule:nonzero;fill:#CBC9BC;fill-opacity:1;" d="M 268.691406 343.835938 C 268.691406 348.207031 265.144531 351.75 260.773438 351.75 C 256.402344 351.75 252.859375 348.207031 252.859375 343.835938 C 252.859375 339.464844 256.402344 335.921875 260.773438 335.921875 C 265.144531 335.921875 268.691406 339.464844 268.691406 343.835938 Z "/>
<path style=" stroke:none;fill-rule:nonzero;fill:#472B29;fill-opacity:1;" d="M 260.773438 353.621094 C 255.375 353.621094 250.984375 349.230469 250.984375 343.835938 C 250.984375 338.433594 255.375 334.046875 260.773438 334.046875 C 266.175781 334.046875 270.566406 338.433594 270.566406 343.835938 C 270.566406 349.230469 266.175781 353.621094 260.773438 353.621094 Z M 260.773438 337.796875 C 257.445313 337.796875 254.734375 340.503906 254.734375 343.835938 C 254.734375 347.164063 257.445313 349.871094 260.773438 349.871094 C 264.105469 349.871094 266.816406 347.164063 266.816406 343.835938 C 266.816406 340.503906 264.105469 337.796875 260.773438 337.796875 Z "/>
<path style=" stroke:none;fill-rule:nonzero;fill:#472B29;fill-opacity:1;" d="M 275.019531 157.070313 L 249.695313 157.070313 C 248.824219 157.070313 248.109375 156.359375 248.109375 155.484375 C 248.109375 154.613281 248.820313 153.898438 249.695313 153.898438 L 275.019531 153.898438 C 275.890625 153.898438 276.605469 154.609375 276.605469 155.484375 C 276.601563 156.355469 275.890625 157.070313 275.019531 157.070313 Z "/>
<path style=" stroke:none;fill-rule:nonzero;fill:#472B29;fill-opacity:1;" d="M 309.839844 179.519531 C 308.804688 179.519531 307.964844 178.679688 307.964844 177.644531 L 307.964844 168.148438 C 307.964844 167.113281 308.804688 166.273438 309.839844 166.273438 C 310.875 166.273438 311.714844 167.113281 311.714844 168.148438 L 311.714844 177.640625 C 311.714844 178.679688 310.875 179.519531 309.839844 179.519531 Z "/>
<path style=" stroke:none;fill-rule:nonzero;fill:#472B29;fill-opacity:1;" d="M 309.820313 185.84375 C 309.570313 185.84375 309.371094 185.789063 309.121094 185.695313 C 308.921875 185.589844 308.671875 185.496094 308.519531 185.296875 C 308.320313 185.144531 308.21875 184.945313 308.121094 184.695313 C 308.019531 184.445313 307.96875 184.246094 307.96875 183.996094 C 307.96875 183.738281 308.019531 183.488281 308.121094 183.246094 C 308.21875 183.046875 308.320313 182.84375 308.519531 182.644531 C 309.019531 182.144531 309.871094 181.945313 310.570313 182.246094 C 310.769531 182.351563 310.96875 182.496094 311.171875 182.644531 C 311.320313 182.84375 311.46875 183.046875 311.570313 183.246094 C 311.671875 183.496094 311.71875 183.746094 311.71875 183.996094 C 311.71875 184.246094 311.671875 184.445313 311.570313 184.695313 C 311.46875 184.945313 311.371094 185.144531 311.171875 185.296875 C 310.820313 185.644531 310.320313 185.84375 309.820313 185.84375 Z "/>
<path style=" stroke:none;fill-rule:nonzero;fill:#472B29;fill-opacity:1;" d="M 214.875 293.480469 C 213.839844 293.480469 213 292.640625 213 291.605469 L 213 285.269531 C 213 284.234375 213.839844 283.394531 214.875 283.394531 C 215.910156 283.394531 216.75 284.234375 216.75 285.269531 L 216.75 291.605469 C 216.75 292.640625 215.910156 293.480469 214.875 293.480469 Z "/>
<path style=" stroke:none;fill-rule:nonzero;fill:#FDFCEE;fill-opacity:1;" d="M 225.214844 221.21875 L 299.5 221.21875 L 299.5 242.425781 L 225.214844 242.425781 Z "/>
<path style=" stroke:none;fill-rule:nonzero;fill:#472B29;fill-opacity:1;" d="M 299.5 244.046875 L 225.214844 244.046875 C 224.316406 244.046875 223.589844 243.316406 223.589844 242.421875 L 223.589844 221.21875 C 223.589844 220.320313 224.320313 219.59375 225.214844 219.59375 L 299.5 219.59375 C 300.398438 219.59375 301.125 220.324219 301.125 221.21875 L 301.125 242.421875 C 301.125 243.316406 300.394531 244.046875 299.5 244.046875 Z M 226.84375 240.796875 L 297.875 240.796875 L 297.875 222.84375 L 226.84375 222.84375 Z "/>
<path style=" stroke:none;fill-rule:nonzero;fill:#F1BC19;fill-opacity:1;" d="M 289.351563 301.84375 L 235.371094 301.84375 C 229.785156 301.84375 225.21875 297.273438 225.21875 291.695313 L 225.21875 291.464844 C 225.21875 285.878906 229.789063 281.316406 235.371094 281.316406 L 289.351563 281.316406 C 294.933594 281.316406 299.5 285.886719 299.5 291.464844 L 299.5 291.695313 C 299.5 297.273438 294.929688 301.84375 289.351563 301.84375 Z "/>
<path style=" stroke:none;fill-rule:nonzero;fill:#472B29;fill-opacity:1;" d="M 289.34375 303.339844 L 235.371094 303.339844 C 228.945313 303.339844 223.71875 298.113281 223.71875 291.691406 C 223.71875 285.03125 228.945313 279.804688 235.371094 279.804688 L 289.351563 279.804688 C 295.773438 279.804688 301 285.03125 301 291.453125 C 301 298.113281 295.773438 303.339844 289.34375 303.339844 Z M 235.371094 282.804688 C 230.601563 282.804688 226.71875 286.683594 226.71875 291.453125 C 226.71875 296.460938 230.601563 300.339844 235.371094 300.339844 L 289.351563 300.339844 C 294.121094 300.339844 298 296.460938 298 291.691406 C 298 286.683594 294.121094 282.804688 289.351563 282.804688 Z "/>
<path style=" stroke:none;fill-rule:nonzero;fill:#472B29;fill-opacity:1;" d="M 297.953125 254.941406 L 283.164063 254.941406 C 282.128906 254.941406 281.289063 254.101563 281.289063 253.066406 C 281.289063 252.03125 282.128906 251.191406 283.164063 251.191406 L 297.953125 251.191406 C 298.988281 251.191406 299.828125 252.03125 299.828125 253.066406 C 299.828125 254.101563 298.988281 254.941406 297.953125 254.941406 Z "/>
<path style=" stroke:none;fill-rule:nonzero;fill:#472B29;fill-opacity:1;" d="M 274.714844 254.941406 L 225.21875 254.941406 C 224.183594 254.941406 223.34375 254.101563 223.34375 253.066406 C 223.34375 252.03125 224.183594 251.191406 225.21875 251.191406 L 274.714844 251.191406 C 275.75 251.191406 276.589844 252.03125 276.589844 253.066406 C 276.589844 254.101563 275.75 254.941406 274.714844 254.941406 Z "/>
<path style=" stroke:none;fill-rule:nonzero;fill:#472B29;fill-opacity:1;" d="M 254.125 267.441406 L 225.21875 267.441406 C 224.183594 267.441406 223.34375 266.601563 223.34375 265.566406 C 223.34375 264.53125 224.183594 263.691406 225.21875 263.691406 L 254.125 263.691406 C 255.160156 263.691406 256 264.53125 256 265.566406 C 256 266.601563 255.160156 267.441406 254.125 267.441406 Z "/>
<path style=" stroke:none;fill-rule:nonzero;fill:#472B29;fill-opacity:1;" d="M 279.105469 267.441406 L 261.085938 267.441406 C 260.050781 267.441406 259.210938 266.601563 259.210938 265.566406 C 259.210938 264.53125 260.050781 263.691406 261.085938 263.691406 L 279.105469 263.691406 C 280.140625 263.691406 280.980469 264.53125 280.980469 265.566406 C 280.980469 266.601563 280.140625 267.441406 279.105469 267.441406 Z "/>
<path style=" stroke:none;fill-rule:nonzero;fill:#472B29;fill-opacity:1;" d="M 297.953125 267.441406 L 286.078125 267.441406 C 285.046875 267.441406 284.203125 266.601563 284.203125 265.566406 C 284.203125 264.53125 285.046875 263.691406 286.078125 263.691406 L 297.953125 263.691406 C 298.988281 263.691406 299.828125 264.53125 299.828125 265.566406 C 299.828125 266.601563 298.988281 267.441406 297.953125 267.441406 Z "/>
<path style=" stroke:none;fill-rule:nonzero;fill:#FDFCEF;fill-opacity:1;" d="M 225.414063 168.148438 L 215.023438 168.148438 L 209.71875 195.28125 C 209.71875 195.28125 209.675781 195.289063 209.671875 195.289063 C 209.671875 195.300781 209.671875 195.28125 209.671875 195.289063 C 209.640625 195.921875 209.621094 196.589844 209.621094 197.339844 C 209.621094 201.191406 212.746094 204.339844 216.570313 204.339844 L 217.773438 204.339844 C 221.59375 204.339844 225.414063 201.191406 225.414063 197.339844 C 225.414063 196.601563 225.441406 195.921875 225.414063 195.289063 Z "/>
<path style=" stroke:none;fill-rule:nonzero;fill:#472B29;fill-opacity:1;" d="M 217.773438 206.210938 L 216.570313 206.210938 C 211.703125 206.210938 207.746094 202.230469 207.746094 197.339844 C 207.746094 196.558594 207.765625 195.855469 207.800781 195.195313 C 207.808594 194.953125 207.863281 194.734375 207.953125 194.53125 L 213.183594 167.789063 C 213.359375 166.910156 214.128906 166.273438 215.023438 166.273438 L 225.414063 166.273438 C 226.449219 166.273438 227.289063 167.113281 227.289063 168.148438 L 227.289063 195.285156 C 227.304688 195.648438 227.300781 196.121094 227.296875 196.621094 L 227.289063 197.339844 C 227.289063 202.058594 222.84375 206.210938 217.773438 206.210938 Z M 211.53125 195.78125 C 211.511719 196.269531 211.5 196.78125 211.5 197.339844 C 211.5 200.160156 213.773438 202.460938 216.574219 202.460938 L 217.78125 202.460938 C 220.746094 202.460938 223.546875 199.96875 223.546875 197.339844 L 223.550781 196.574219 C 223.554688 196.15625 223.558594 195.75 223.546875 195.371094 L 223.546875 170.035156 L 216.574219 170.035156 L 211.570313 195.644531 C 211.550781 195.683594 211.539063 195.734375 211.53125 195.78125 Z "/>
<path style=" stroke:none;fill-rule:nonzero;fill:#78A0CF;fill-opacity:1;" d="M 240.300781 168.148438 L 225.410156 168.148438 L 225.410156 194.808594 L 225.460938 194.808594 C 225.429688 195.46875 225.410156 196.183594 225.410156 196.964844 C 225.410156 201.015625 228.699219 204.328125 232.726563 204.328125 L 233.683594 204.328125 C 237.566406 204.328125 240.300781 201.179688 240.300781 197.328125 C 240.300781 196.589844 240.324219 195.910156 240.300781 195.28125 Z "/>
<path style=" stroke:none;fill-rule:nonzero;fill:#472B29;fill-opacity:1;" d="M 233.683594 206.210938 L 232.730469 206.210938 C 227.664063 206.210938 223.539063 202.066406 223.539063 196.964844 C 223.539063 196.320313 223.550781 195.71875 223.574219 195.160156 C 223.554688 195.050781 223.539063 194.929688 223.539063 194.816406 L 223.539063 168.148438 C 223.539063 167.113281 224.378906 166.273438 225.414063 166.273438 L 240.304688 166.273438 C 241.339844 166.273438 242.179688 167.113281 242.179688 168.148438 L 242.179688 195.285156 C 242.195313 195.648438 242.191406 196.121094 242.183594 196.621094 L 242.179688 197.339844 C 242.175781 202.308594 238.445313 206.210938 233.683594 206.210938 Z M 227.289063 194.40625 C 227.328125 194.566406 227.351563 194.734375 227.339844 194.910156 C 227.308594 195.539063 227.289063 196.21875 227.289063 196.964844 C 227.289063 199.988281 229.730469 202.460938 232.730469 202.460938 L 233.683594 202.460938 C 236.390625 202.460938 238.425781 200.261719 238.425781 197.339844 L 238.429688 196.574219 C 238.433594 196.15625 238.441406 195.75 238.425781 195.371094 L 238.425781 170.035156 L 227.285156 170.035156 L 227.285156 194.40625 Z "/>
<path style=" stroke:none;fill-rule:nonzero;fill:#FDFCEF;fill-opacity:1;" d="M 255.191406 168.148438 L 240.300781 168.148438 L 240.300781 194.808594 L 240.351563 194.808594 C 240.320313 195.46875 240.300781 196.183594 240.300781 196.964844 C 240.300781 201.015625 243.589844 204.328125 247.613281 204.328125 L 248.574219 204.328125 C 252.453125 204.328125 255.191406 201.179688 255.191406 197.328125 C 255.191406 196.589844 255.214844 195.910156 255.191406 195.28125 Z "/>
<path style=" stroke:none;fill-rule:nonzero;fill:#472B29;fill-opacity:1;" d="M 248.574219 206.210938 L 247.621094 206.210938 C 242.554688 206.210938 238.429688 202.066406 238.429688 196.964844 C 238.429688 196.320313 238.441406 195.71875 238.464844 195.160156 C 238.445313 195.050781 238.429688 194.929688 238.429688 194.816406 L 238.429688 168.148438 C 238.429688 167.113281 239.269531 166.273438 240.304688 166.273438 L 255.195313 166.273438 C 256.230469 166.273438 257.070313 167.113281 257.070313 168.148438 L 257.070313 195.285156 C 257.085938 195.648438 257.078125 196.121094 257.074219 196.621094 L 257.070313 197.339844 C 257.066406 202.308594 253.335938 206.210938 248.574219 206.210938 Z M 242.175781 194.40625 C 242.214844 194.566406 242.234375 194.734375 242.226563 194.910156 C 242.195313 195.539063 242.175781 196.21875 242.175781 196.964844 C 242.175781 199.988281 244.613281 202.460938 247.613281 202.460938 L 248.570313 202.460938 C 251.273438 202.460938 253.308594 200.261719 253.308594 197.339844 L 253.316406 196.574219 C 253.320313 196.15625 253.324219 195.75 253.308594 195.371094 L 253.308594 170.035156 L 242.171875 170.035156 L 242.171875 194.40625 Z "/>
<path style=" stroke:none;fill-rule:nonzero;fill:#78A0CF;fill-opacity:1;" d="M 270.089844 168.148438 L 255.199219 168.148438 L 255.199219 194.808594 L 255.25 194.808594 C 255.21875 195.46875 255.199219 196.183594 255.199219 196.964844 C 255.199219 201.015625 258.488281 204.328125 262.515625 204.328125 L 263.476563 204.328125 C 267.355469 204.328125 270.089844 201.128906 270.089844 197.28125 C 270.089844 196.539063 270.113281 195.910156 270.089844 195.28125 Z "/>
<path style=" stroke:none;fill-rule:nonzero;fill:#472B29;fill-opacity:1;" d="M 263.476563 206.210938 L 262.519531 206.210938 C 257.453125 206.210938 253.328125 202.066406 253.328125 196.964844 C 253.328125 196.320313 253.339844 195.71875 253.363281 195.160156 C 253.34375 195.050781 253.328125 194.929688 253.328125 194.816406 L 253.328125 168.148438 C 253.328125 167.113281 254.171875 166.273438 255.203125 166.273438 L 270.09375 166.273438 C 271.128906 166.273438 271.96875 167.113281 271.96875 168.148438 L 271.96875 195.285156 C 271.984375 195.648438 271.980469 196.101563 271.976563 196.578125 L 271.96875 197.285156 C 271.964844 202.285156 268.234375 206.210938 263.476563 206.210938 Z M 257.074219 194.40625 C 257.113281 194.566406 257.136719 194.734375 257.125 194.910156 C 257.09375 195.539063 257.074219 196.21875 257.074219 196.964844 C 257.074219 199.988281 259.515625 202.460938 262.515625 202.460938 L 263.46875 202.460938 C 266.175781 202.460938 268.210938 200.234375 268.210938 197.285156 L 268.214844 196.535156 C 268.21875 196.125 268.226563 195.75 268.210938 195.371094 L 268.210938 170.035156 L 257.070313 170.035156 L 257.070313 194.40625 Z "/>
<path style=" stroke:none;fill-rule:nonzero;fill:#FDFCEF;fill-opacity:1;" d="M 284.976563 168.148438 L 270.085938 168.148438 L 270.085938 194.808594 L 270.105469 194.808594 C 270.09375 195.261719 270.085938 195.71875 270.085938 196.214844 C 270.085938 200.679688 273.378906 204.328125 277.410156 204.328125 L 278.371094 204.328125 C 282.253906 204.328125 284.984375 200.769531 284.984375 196.53125 C 284.984375 196.058594 284.984375 195.714844 284.980469 195.285156 L 284.980469 168.148438 Z "/>
<path style=" stroke:none;fill-rule:nonzero;fill:#472B29;fill-opacity:1;" d="M 278.371094 206.210938 L 277.410156 206.210938 C 272.339844 206.210938 268.214844 201.730469 268.214844 196.214844 L 268.230469 195.046875 C 268.21875 194.96875 268.214844 194.894531 268.214844 194.816406 L 268.214844 168.148438 C 268.214844 167.113281 269.054688 166.273438 270.089844 166.273438 L 284.980469 166.273438 C 286.015625 166.273438 286.855469 167.113281 286.855469 168.148438 L 286.859375 196.300781 C 286.859375 201.953125 283.128906 206.210938 278.371094 206.210938 Z M 271.964844 194.558594 C 271.976563 194.660156 271.984375 194.753906 271.980469 194.851563 L 271.964844 196.210938 C 271.964844 199.648438 274.410156 202.453125 277.410156 202.453125 L 278.371094 202.453125 C 281.074219 202.453125 283.109375 199.90625 283.109375 196.523438 L 283.105469 170.019531 L 271.964844 170.019531 Z "/>
<path style=" stroke:none;fill-rule:nonzero;fill:#78A0CF;fill-opacity:1;" d="M 299.863281 168.148438 L 284.976563 168.148438 L 284.976563 194.808594 L 285.023438 194.808594 C 284.996094 195.46875 284.976563 196.183594 284.976563 196.964844 C 284.976563 201.015625 288.265625 204.328125 292.289063 204.328125 L 293.25 204.328125 C 297.128906 204.328125 299.863281 201.179688 299.863281 197.328125 C 299.863281 196.589844 299.890625 195.910156 299.863281 195.28125 Z "/>
<path style=" stroke:none;fill-rule:nonzero;fill:#472B29;fill-opacity:1;" d="M 293.25 206.210938 L 292.296875 206.210938 C 287.230469 206.210938 283.105469 202.066406 283.105469 196.964844 C 283.105469 196.320313 283.113281 195.726563 283.140625 195.164063 C 283.121094 195.050781 283.105469 194.929688 283.105469 194.816406 L 283.105469 168.148438 C 283.105469 167.113281 283.945313 166.273438 284.980469 166.273438 L 299.871094 166.273438 C 300.90625 166.273438 301.746094 167.113281 301.746094 168.148438 L 301.746094 195.285156 C 301.761719 195.648438 301.753906 196.121094 301.75 196.621094 L 301.746094 197.339844 C 301.738281 202.308594 298.011719 206.210938 293.25 206.210938 Z M 286.851563 194.40625 C 286.890625 194.566406 286.90625 194.730469 286.898438 194.898438 C 286.871094 195.535156 286.851563 196.21875 286.851563 196.964844 C 286.851563 199.988281 289.289063 202.460938 292.289063 202.460938 L 293.246094 202.460938 C 295.949219 202.460938 297.984375 200.261719 297.984375 197.339844 L 297.988281 196.574219 C 297.996094 196.15625 298 195.75 297.984375 195.371094 L 297.984375 170.035156 L 286.851563 170.035156 Z "/>
<path style=" stroke:none;fill-rule:nonzero;fill:#FDFCEF;fill-opacity:1;" d="M 314.921875 195.285156 L 310.175781 168.148438 L 299.863281 168.148438 L 299.863281 194.808594 L 299.914063 194.808594 C 299.886719 195.46875 299.863281 196.183594 299.863281 196.964844 C 299.863281 201.015625 303.15625 204.328125 307.179688 204.328125 L 308.019531 204.328125 C 311.839844 204.328125 314.96875 201.179688 314.96875 197.328125 C 314.964844 196.589844 314.949219 195.914063 314.921875 195.285156 Z "/>
<path style=" stroke:none;fill-rule:nonzero;fill:#472B29;fill-opacity:1;" d="M 308.015625 206.210938 L 307.179688 206.210938 C 302.113281 206.210938 297.988281 202.066406 297.988281 196.964844 C 297.988281 196.320313 298 195.726563 298.023438 195.164063 C 298.003906 195.050781 297.988281 194.929688 297.988281 194.816406 L 297.988281 168.148438 C 297.988281 167.113281 298.828125 166.273438 299.863281 166.273438 L 310.175781 166.273438 C 311.085938 166.273438 311.863281 166.929688 312.023438 167.828125 L 316.769531 194.964844 C 316.78125 195.046875 316.789063 195.125 316.796875 195.210938 C 316.824219 195.863281 316.839844 196.566406 316.839844 197.339844 C 316.839844 202.230469 312.886719 206.210938 308.015625 206.210938 Z M 301.738281 194.40625 C 301.78125 194.566406 301.796875 194.730469 301.789063 194.898438 C 301.761719 195.535156 301.738281 196.21875 301.738281 196.964844 C 301.738281 199.988281 304.179688 202.460938 307.179688 202.460938 L 308.015625 202.460938 C 310.816406 202.460938 313.089844 200.160156 313.089844 197.339844 C 313.089844 196.671875 313.074219 196.058594 313.054688 195.488281 L 308.601563 170.03125 L 301.738281 170.03125 Z "/>
<path style=" stroke:none;fill-rule:nonzero;fill:#472B29;fill-opacity:1;" d="M 314.964844 197.964844 L 210.523438 197.964844 C 209.835938 197.964844 209.273438 197.40625 209.273438 196.714844 C 209.273438 196.023438 209.835938 195.464844 210.523438 195.464844 L 314.964844 195.464844 C 315.65625 195.464844 316.214844 196.023438 316.214844 196.714844 C 316.214844 197.40625 315.65625 197.964844 314.964844 197.964844 Z "/>
<path style=" stroke:none;fill-rule:nonzero;fill:#78A0CF;fill-opacity:1;" d="M 277.535156 266.421875 L 277.535156 352.414063 C 277.535156 360.640625 284.796875 367.371094 293.664063 367.371094 L 351.464844 367.371094 C 360.335938 367.371094 367.59375 360.640625 367.59375 352.414063 L 367.59375 266.421875 Z "/>
<path style=" stroke:none;fill-rule:nonzero;fill:#472B29;fill-opacity:1;" d="M 351.464844 369.871094 L 293.664063 369.871094 C 283.394531 369.871094 275.035156 362.039063 275.035156 352.414063 L 275.035156 266.421875 C 275.035156 265.039063 276.15625 263.921875 277.535156 263.921875 L 367.59375 263.921875 C 368.976563 263.921875 370.09375 265.039063 370.09375 266.421875 L 370.09375 352.414063 C 370.09375 362.039063 361.738281 369.871094 351.464844 369.871094 Z M 280.039063 268.921875 L 280.039063 352.414063 C 280.039063 359.285156 286.15625 364.871094 293.671875 364.871094 L 351.46875 364.871094 C 358.984375 364.871094 365.101563 359.285156 365.101563 352.414063 L 365.101563 268.921875 Z "/>
<path style=" stroke:none;fill-rule:nonzero;fill:#96C1ED;fill-opacity:1;" d="M 279.234375 268.160156 L 365.894531 268.160156 L 365.894531 275.988281 L 279.234375 275.988281 Z "/>
<path style=" stroke:none;fill-rule:nonzero;fill:#472B29;fill-opacity:1;" d="M 349.753906 277.246094 L 278.390625 277.246094 C 277.699219 277.246094 277.140625 276.683594 277.140625 275.996094 C 277.140625 275.304688 277.699219 274.746094 278.390625 274.746094 L 349.753906 274.746094 C 350.445313 274.746094 351.003906 275.304688 351.003906 275.996094 C 351.003906 276.683594 350.445313 277.246094 349.753906 277.246094 Z "/>
<path style=" stroke:none;fill-rule:nonzero;fill:#472B29;fill-opacity:1;" d="M 358.25 277.246094 L 353.148438 277.246094 C 352.460938 277.246094 351.898438 276.683594 351.898438 275.996094 C 351.898438 275.304688 352.460938 274.746094 353.148438 274.746094 L 358.25 274.746094 C 358.941406 274.746094 359.5 275.304688 359.5 275.996094 C 359.5 276.683594 358.941406 277.246094 358.25 277.246094 Z "/>
<path style=" stroke:none;fill-rule:nonzero;fill:#472B29;fill-opacity:1;" d="M 365.660156 277.246094 L 362.261719 277.246094 C 361.570313 277.246094 361.011719 276.683594 361.011719 275.996094 C 361.011719 275.304688 361.570313 274.746094 362.261719 274.746094 L 365.660156 274.746094 C 366.351563 274.746094 366.910156 275.304688 366.910156 275.996094 C 366.910156 276.683594 366.351563 277.246094 365.660156 277.246094 Z "/>
<path style=" stroke:none;fill-rule:nonzero;fill:#96C1ED;fill-opacity:1;" d="M 280.226563 346.625 L 280.238281 352.015625 C 280.238281 359.824219 287.070313 365.628906 295.429688 365.628906 L 349.910156 365.628906 C 358.269531 365.628906 365.105469 359.910156 364.996094 351.960938 L 365 346.484375 Z "/>
<path style=" stroke:none;fill-rule:nonzero;fill:#4980B7;fill-opacity:1;" d="M 308.589844 291.90625 C 307.519531 294.570313 304.539063 295.84375 301.933594 294.746094 C 299.328125 293.644531 298.089844 290.59375 299.160156 287.929688 C 300.230469 285.265625 303.210938 283.988281 305.816406 285.089844 C 308.421875 286.183594 309.660156 289.238281 308.589844 291.90625 Z "/>
<path style=" stroke:none;fill-rule:nonzero;fill:#472B29;fill-opacity:1;" d="M 303.871094 296.769531 C 303 296.769531 302.128906 296.59375 301.304688 296.25 C 297.890625 294.808594 296.253906 290.808594 297.65625 287.328125 C 298.34375 285.613281 299.644531 284.289063 301.328125 283.585938 C 302.984375 282.894531 304.800781 282.90625 306.449219 283.59375 C 309.859375 285.035156 311.496094 289.039063 310.09375 292.515625 C 309.40625 294.230469 308.105469 295.554688 306.421875 296.253906 C 305.601563 296.59375 304.734375 296.769531 303.871094 296.769531 Z M 303.875 286.320313 C 303.433594 286.320313 303 286.410156 302.578125 286.578125 C 301.710938 286.945313 301.03125 287.640625 300.671875 288.539063 C 299.929688 290.386719 300.773438 292.5 302.566406 293.25 C 303.40625 293.609375 304.328125 293.605469 305.171875 293.253906 C 306.039063 292.894531 306.71875 292.195313 307.074219 291.300781 C 307.816406 289.453125 306.96875 287.339844 305.179688 286.589844 C 304.765625 286.410156 304.320313 286.320313 303.875 286.320313 Z "/>
<path style=" stroke:none;fill-rule:nonzero;fill:#4980B7;fill-opacity:1;" d="M 348.054688 289.914063 C 348.054688 287.03125 345.773438 284.695313 342.953125 284.695313 C 340.136719 284.695313 337.855469 287.03125 337.855469 289.914063 C 337.855469 292.796875 340.136719 295.136719 342.953125 295.136719 C 345.773438 295.136719 348.054688 292.796875 348.054688 289.914063 Z "/>
<path style=" stroke:none;fill-rule:nonzero;fill:#472B29;fill-opacity:1;" d="M 342.960938 296.765625 C 339.253906 296.765625 336.234375 293.695313 336.234375 289.921875 C 336.234375 286.140625 339.253906 283.070313 342.960938 283.070313 C 346.664063 283.070313 349.683594 286.140625 349.683594 289.921875 C 349.679688 293.695313 346.664063 296.765625 342.960938 296.765625 Z M 342.960938 286.320313 C 341.046875 286.320313 339.488281 287.933594 339.488281 289.921875 C 339.488281 291.90625 341.050781 293.515625 342.960938 293.515625 C 344.871094 293.515625 346.429688 291.90625 346.429688 289.921875 C 346.429688 287.933594 344.871094 286.320313 342.960938 286.320313 Z "/>
<path style=" stroke:none;fill-rule:nonzero;fill:#472B29;fill-opacity:1;" d="M 358.25 349.230469 L 285.183594 349.230469 C 284.148438 349.230469 283.308594 348.390625 283.308594 347.355469 C 283.308594 346.320313 284.148438 345.480469 285.183594 345.480469 L 358.25 345.480469 C 359.285156 345.480469 360.125 346.320313 360.125 347.355469 C 360.125 348.390625 359.285156 349.230469 358.25 349.230469 Z "/>
<path style=" stroke:none;fill-rule:nonzero;fill:#472B29;fill-opacity:1;" d="M 342.960938 291.171875 C 342.269531 291.171875 341.710938 290.609375 341.710938 289.921875 L 341.710938 267.058594 C 341.710938 258.28125 335.695313 251.136719 328.304688 251.136719 L 318.535156 251.136719 C 311.140625 251.136719 305.128906 258.28125 305.128906 267.058594 L 305.128906 289.921875 C 305.128906 290.609375 304.570313 291.171875 303.878906 291.171875 C 303.191406 291.171875 302.628906 290.609375 302.628906 289.921875 L 302.628906 267.058594 C 302.628906 256.90625 309.765625 248.636719 318.535156 248.636719 L 328.304688 248.636719 C 337.074219 248.636719 344.210938 256.898438 344.210938 267.058594 L 344.210938 289.921875 C 344.210938 290.605469 343.648438 291.171875 342.960938 291.171875 Z "/>
</g>
</svg>
